<mxfile host="app.diagrams.net" modified="2023-08-24T03:38:34.623Z" agent="Mozilla/5.0 (X11; Linux x86_64) AppleWebKit/537.36 (KHTML, like Gecko) Chrome/116.0.0.0 Safari/537.36" version="21.6.9" etag="gAyquL2nK0WpfIljv4iU" type="github">
  <diagram name="PÃ¡gina-1" id="vf5eGVfjJe-5Tmm5qYNj">
    <mxGraphModel>
      <root>
        <mxCell id="0" />
        <mxCell id="1" parent="0" />
      </root>
    </mxGraphModel>
  </diagram>
</mxfile>
